<svg id="visual" viewBox="0 0 600 900" width="600" height="900" xmlns="http://www.w3.org/2000/svg" xmlns:xlink="http://www.w3.org/1999/xlink" version="1.1"><rect x="0" y="0" width="600" height="900" fill="#001220"></rect><defs><linearGradient id="grad1_0" x1="0%" y1="0%" x2="100%" y2="100%"><stop offset="30%" stop-color="#001220" stop-opacity="1"></stop><stop offset="70%" stop-color="#001220" stop-opacity="1"></stop></linearGradient></defs><defs><linearGradient id="grad2_0" x1="0%" y1="0%" x2="100%" y2="100%"><stop offset="30%" stop-color="#001220" stop-opacity="1"></stop><stop offset="70%" stop-color="#001220" stop-opacity="1"></stop></linearGradient></defs><g transform="translate(600, 0)"><path d="M0 459.7C-52.2 436.5 -104.4 413.2 -163.8 395.4C-223.2 377.6 -289.8 365.3 -325.1 325.1C-360.4 284.9 -364.3 216.9 -381.6 158C-398.8 99.2 -429.2 49.6 -459.7 0L0 0Z" fill="#FBAE3C"></path></g><g transform="translate(0, 900)"><path d="M0 -459.7C62.2 -453.4 124.3 -447 174.1 -420.4C223.9 -393.7 261.3 -346.7 304.8 -304.8C348.3 -262.8 397.9 -225.9 424.7 -175.9C451.6 -126 455.6 -63 459.7 0L0 0Z" fill="#FBAE3C"></path></g></svg>