<?xml version="1.0" standalone="no"?><!DOCTYPE svg PUBLIC "-//W3C//DTD SVG 1.1//EN" "http://www.w3.org/Graphics/SVG/1.1/DTD/svg11.dtd"><svg t="1681269829582" class="icon" viewBox="0 0 1024 1024" version="1.1" xmlns="http://www.w3.org/2000/svg" p-id="11237" xmlns:xlink="http://www.w3.org/1999/xlink" width="200" height="200"><path d="M614.4 440.32c-113.11104 0-204.8 55.01952-204.8 122.88v81.92c0 67.86048 91.68896 122.88 204.8 122.88s204.8-55.01952 204.8-122.88v-81.92c0-67.86048-91.68896-122.88-204.8-122.88z" fill="#C8DAF8" p-id="11238"></path><path d="M727.16288 665.72288c5.9392-2.33472 11.63264-4.84352 17.11104-7.53664L536.65792 449.536c-12.76928 3.10272-25.2928 7.14752-37.45792 12.0832l209.54112 210.57536A318.03392 318.03392 0 0 1 614.4 686.08c-113.11104 0-204.8-55.01952-204.8-122.88v81.92c0 67.86048 91.68896 122.88 204.8 122.88s204.8-55.01952 204.8-122.88v-81.92c0 42.8544-36.608 80.5376-92.03712 102.52288z m0 0a267.4688 267.4688 0 0 1-0.04096 0.02048l0.04096-0.02048z" fill="#000064" opacity=".15" p-id="11239"></path><path d="M536.65792 449.536A325.7856 325.7856 0 0 1 614.4 440.32v-51.2c0-67.86048-91.68896-122.88-204.8-122.88s-204.8 55.01952-204.8 122.88v81.92c0 67.86048 91.68896 122.88 204.8 122.88v-30.72c0-51.34336 52.52096-95.232 127.05792-113.664z" fill="#A7C5F2" p-id="11240"></path><path d="M315.24864 498.11456L524.8 287.5392a268.0832 268.0832 0 0 0-37.45792-12.0832L279.7056 484.10624c5.45792 2.69312 11.1616 5.20192 17.11104 7.53664C241.39776 469.64736 204.8 431.96416 204.8 389.12v81.92c0 67.86048 91.68896 122.88 204.8 122.88v-30.72a83.968 83.968 0 0 1 19.1488-51.78368c-6.30784 0.34816-12.68736 0.58368-19.1488 0.58368a318.04416 318.04416 0 0 1-94.35136-13.88544z m-0.1024 0a269.4144 269.4144 0 0 1-18.20672-6.4 283.648 283.648 0 0 0 18.21696 6.36928l-0.01024 0.03072z" fill="#000064" opacity=".15" p-id="11241"></path><path d="M614.4 389.12a84.16256 84.16256 0 0 1-19.26144 51.78368A340.86912 340.86912 0 0 1 614.4 440.32v-51.2z" fill="#78D1F4" p-id="11242"></path></svg>