<?xml version="1.0" standalone="no"?><!DOCTYPE svg PUBLIC "-//W3C//DTD SVG 1.1//EN" "http://www.w3.org/Graphics/SVG/1.1/DTD/svg11.dtd"><svg t="1681269795894" class="icon" viewBox="0 0 1024 1024" version="1.1" xmlns="http://www.w3.org/2000/svg" p-id="8520" xmlns:xlink="http://www.w3.org/1999/xlink" width="200" height="200"><path d="M571.6 126.2c0-6.6-5.4-12-12-12h-88.8c-6.6 0-12 5.4-12 12v78.1h112.8v-78.1z m-56.4 35.4c-8.8 0-15.9-7.1-15.9-15.9s7.1-15.9 15.9-15.9 15.9 7.1 15.9 15.9-7.1 15.9-15.9 15.9z" fill="#2A94FF" p-id="8521"></path><path d="M592.7 216.3c0-6.6-5.4-12-12-12h-131c-6.6 0-12 5.4-12 12v52.8h154.9v-52.8z" fill="#167DFB" p-id="8522"></path><path d="M596 269.1H434.5c-75.5 0-137.3 61.8-137.3 137.3v451c0 25.7 21 46.8 46.8 46.8h342.6c25.7 0 46.8-21 46.8-46.8v-451c-0.1-75.6-61.9-137.3-137.4-137.3zM689.8 790c0 27.9-22.8 50.8-50.8 50.8H391.4c-27.9 0-50.8-22.8-50.8-50.8V428.7h349.2V790z" fill="#FF75AC" p-id="8523"></path><path d="M515.2 129.8c-8.8 0-15.9 7.1-15.9 15.9s7.1 15.9 15.9 15.9 15.9-7.1 15.9-15.9-7.1-15.9-15.9-15.9z" fill="#167DFB" p-id="8524"></path><path d="M340.6 790c0 27.9 22.8 50.8 50.8 50.8h247.7c27.9 0 50.8-22.8 50.8-50.8V428.7H340.6V790z m64-229c0-6.6 5.4-12 12-12h197.3c6.6 0 12 5.4 12 12v87.9c0 6.6-5.4 12-12 12H416.6c-6.6 0-12-5.4-12-12V561z" fill="#F82264" p-id="8525"></path><path d="M416.6 660.9h197.3c6.6 0 12-5.4 12-12V561c0-6.6-5.4-12-12-12H416.6c-6.6 0-12 5.4-12 12v87.9c0 6.6 5.4 12 12 12z" fill="#2A94FF" p-id="8526"></path></svg>