<svg width="128" y="0px" height="128" xml:space="preserve" id="图层_1" style="font-size: 128px;" x="0px" version="1.1" xmlns:xlink="http://www.w3.org/1999/xlink" viewBox="0 0 256 256" xmlns="http://www.w3.org/2000/svg">
    <style type="text/css">
	.st0{fill-rule:evenodd;clip-rule:evenodd;fill:#4484FF;}
	.st1{fill-rule:evenodd;clip-rule:evenodd;fill:#5690FF;}
	.st2{fill-rule:evenodd;clip-rule:evenodd;fill:#FFFFFF;fill-opacity:0.7;}
	.st3{fill-rule:evenodd;clip-rule:evenodd;fill:#E2ECFF;}
</style>
    <g transform="matrix(1,0,0,1,6.5999995e-07,1.2e-06)">
        <g transform="matrix(1.2307692,0,0,1.2307692,-29.476923,-29.538462)">
            <g transform="translate(24.000000, 24.000000)" id="编组-4">
                <path id="蒙版" d="M87.4,0h33.1c28.4,0,40.2,3.2,51.6,9.3c11.4,6.1,20.4,15.1,26.5,26.5c6.1,11.4,9.3,23.2,9.3,51.6
		v33.1c0,28.4-3.2,40.2-9.3,51.6c-6.1,11.4-15.1,20.4-26.5,26.5c-11.4,6.1-23.2,9.3-51.6,9.3H87.4c-28.4,0-40.2-3.2-51.6-9.3
		c-11.4-6.1-20.4-15.1-26.5-26.5C3.2,160.8,0,149,0,120.6V87.4C0,59,3.2,47.2,9.3,35.8S24.4,15.5,35.8,9.3S59,0,87.4,0z" class="st0"></path>
                <path id="路径" d="M104,144c32,0,64.2,8.1,96.6,24.2c-0.6,1.4-1.3,2.7-2,4c-6.1,11.4-15.1,20.4-26.5,26.5l-1,0.5l0,0
		l-0.7,0.4l0,0l-0.7,0.3l0,0l-1,0.5l0,0l-0.7,0.3c-0.1,0.1-0.2,0.1-0.4,0.2l-0.7,0.3c-0.1,0.1-0.2,0.1-0.4,0.2l-0.7,0.3l0,0
		l-0.7,0.3l0,0l-0.7,0.3l0,0l-0.7,0.3l0,0l-0.8,0.3c-0.3,0.1-0.5,0.2-0.8,0.3l-0.8,0.3c-0.1,0-0.3,0.1-0.4,0.1l-0.8,0.3l0,0
		l-0.8,0.2l0,0l-0.8,0.2l0,0l-0.8,0.2l0,0l-0.9,0.2c-0.1,0-0.3,0.1-0.4,0.1l-0.9,0.2l0,0l-0.9,0.2c-0.5,0.1-0.9,0.2-1.4,0.3l-1,0.2
		l0,0l-1,0.2c-0.2,0-0.3,0.1-0.5,0.1l-1,0.2l0,0l-1,0.2l0,0l-1.1,0.2c-0.4,0.1-0.7,0.1-1.1,0.1l-1.1,0.1c-0.2,0-0.4,0-0.6,0.1
		l-1.1,0.1l0,0l-1.2,0.1l0,0l-1.2,0.1l0,0l-1.2,0.1l0,0l-1.3,0.1l0,0l-1.3,0.1l0,0l-1.3,0.1c-0.2,0-0.4,0-0.7,0l-1.4,0.1l0,0
		l-1.4,0.1l0,0l-1.4,0.1l0,0l-1.5,0.1l0,0l-1.5,0c-0.3,0-0.5,0-0.8,0l-1.6,0l0,0l-1.6,0l0,0l-1.6,0l0,0l-1.7,0l0,0H86.6l0,0l-1.7,0
		l0,0l-1.6,0l0,0l-1.6,0l0,0l-1.6,0l0,0l-1.5,0l0,0l-1.5,0l0,0l-1.4-0.1l0,0l-1.4-0.1l0,0l-1.4-0.1c-0.2,0-0.5,0-0.7,0l-1.3-0.1l0,0
		l-1.3-0.1l0,0l-1.3-0.1l0,0l-1.2-0.1l0,0l-1.2-0.1c-0.2,0-0.4,0-0.6-0.1l-1.2-0.1l0,0l-1.1-0.1l0,0l-1.1-0.1
		c-0.4,0-0.7-0.1-1.1-0.1l-1.1-0.2c-0.2,0-0.3-0.1-0.5-0.1l-1-0.2l0,0l-1-0.2c-0.2,0-0.3-0.1-0.5-0.1l-1-0.2l0,0l-1-0.2
		c-0.5-0.1-0.9-0.2-1.4-0.3l-0.9-0.2l0,0l-0.9-0.2l0,0l-0.9-0.2c-0.1,0-0.3-0.1-0.4-0.1l-0.8-0.2l0,0l-0.8-0.2l0,0l-0.8-0.2l0,0
		l-0.8-0.3c-0.1,0-0.3-0.1-0.4-0.1l-0.8-0.3c-0.1,0-0.3-0.1-0.4-0.1l-0.8-0.3c-0.1,0-0.3-0.1-0.4-0.1l-0.7-0.3l0,0l-0.7-0.3l0,0
		l-0.7-0.3l0,0l-0.7-0.3l0,0l-0.7-0.3c-0.1-0.1-0.2-0.1-0.4-0.2l-0.7-0.3l0,0l-0.7-0.3l0,0l-0.7-0.3l0,0l-0.7-0.3l0,0l-0.7-0.4l0,0
		l-0.7-0.4c-0.1-0.1-0.2-0.1-0.3-0.2c-11.4-6.1-20.4-15.1-26.5-26.5c-0.7-1.3-1.4-2.6-2-4C39.8,152.1,72,144,104,144z" class="st1"></path>
            </g>
            <path id="矩形" d="M88,118h80c5.5,0,10,4.5,10,10l0,0c0,5.5-4.5,10-10,10H88c-5.5,0-10-4.5-10-10l0,0
	C78,122.5,82.5,118,88,118z" class="st2"></path>
            <path id="矩形备份-3" d="M138,88v80c0,5.5-4.5,10-10,10l0,0c-5.5,0-10-4.5-10-10V88c0-5.5,4.5-10,10-10l0,0
	C133.5,78,138,82.5,138,88z" class="st3"></path>
        </g>
    </g>
</svg>