<svg id="需删除网格" xmlns="http://www.w3.org/2000/svg" xmlns:xlink="http://www.w3.org/1999/xlink" y="0px" x="0px" xml:space="preserve" width="128" style="font-size: 128px;" height="128" viewBox="0 0 256 256" version="1.1">
    <style type="text/css">
	.st0{fill:url(#SVGID_1_);}
	.st1{fill:url(#SVGID_2_);}
	.st2{fill:url(#SVGID_3_);}
	.st3{fill:url(#SVGID_4_);stroke:url(#SVGID_5_);stroke-width:1.5;stroke-miterlimit:10;}
	.st4{fill:url(#SVGID_6_);}
	.st5{fill:url(#SVGID_7_);}
	.st6{fill:url(#SVGID_8_);}
	.st7{fill:url(#SVGID_9_);}
	.st8{fill:url(#SVGID_10_);}
	.st9{fill:url(#SVGID_11_);}
</style>
    <linearGradient gradientUnits="userSpaceOnUse" id="SVGID_1_" y2="982.64" gradientTransform="matrix(1 0 0 -1 0 1024)" x2="512" x1="512" y1="635.93">
        <stop offset="0" style="stop-color:#135DB7"></stop>
        <stop offset="1" style="stop-color:#3C8EFF"></stop>
    </linearGradient>
    <linearGradient gradientUnits="userSpaceOnUse" id="SVGID_2_" y2="1.9334" gradientTransform="matrix(1 0 0 -1 0 1024)" x2="1032.6727" x1="169.6727" y1="670.8334">
        <stop offset="0" style="stop-color:#EAF6FF"></stop>
        <stop offset="1" style="stop-color:#B3DAFE"></stop>
    </linearGradient>
    <linearGradient gradientUnits="userSpaceOnUse" id="SVGID_3_" y2="1.9334" gradientTransform="matrix(1 0 0 -1 0 1024)" x2="1032.6727" x1="169.6727" y1="670.8334">
        <stop offset="0" style="stop-color:#EAF6FF"></stop>
        <stop offset="1" style="stop-color:#B3DAFE"></stop>
    </linearGradient>
    <linearGradient gradientUnits="userSpaceOnUse" id="SVGID_4_" y2="512.2896" gradientTransform="matrix(1 0 0 -1 0 1024)" x2="603.7896" x1="420.2105" y1="328.7105">
        <stop offset="0" style="stop-color:#135DB7"></stop>
        <stop offset="1" style="stop-color:#3C8EFF"></stop>
    </linearGradient>
    <linearGradient gradientUnits="userSpaceOnUse" id="SVGID_5_" y2="512.8199" gradientTransform="matrix(1 0 0 -1 0 1024)" x2="604.3199" x1="419.6801" y1="328.1801">
        <stop offset="0" style="stop-color:#135DB7"></stop>
        <stop offset="1" style="stop-color:#3C8EFF"></stop>
    </linearGradient>
    <linearGradient gradientUnits="userSpaceOnUse" id="SVGID_6_" y2="567.5112" gradientTransform="matrix(1 0 0 -1 2599.7 309.18)" x2="-2262.8171" x1="-1839.1471" y1="-441.3788">
        <stop offset="0" style="stop-color:#3C8EFF;stop-opacity:0"></stop>
        <stop offset="0.27" style="stop-color:#3C8EFF;stop-opacity:0.1"></stop>
        <stop offset="0.84" style="stop-color:#3C8EFF;stop-opacity:0.3"></stop>
        <stop offset="1" style="stop-color:#3C8EFF"></stop>
    </linearGradient>
    <linearGradient gradientUnits="userSpaceOnUse" id="SVGID_7_" y2="422.68" gradientTransform="matrix(1 0 0 -1 0 1024)" x2="512" x1="512" y1="924.44">
        <stop offset="0" style="stop-color:#EAF6FF"></stop>
        <stop offset="1" style="stop-color:#B3DAFE"></stop>
    </linearGradient>
    <linearGradient gradientUnits="userSpaceOnUse" id="SVGID_8_" y2="473.27" gradientTransform="matrix(1 0 0 -1 0 1024)" x2="512" x1="512" y1="703.06">
        <stop offset="0" style="stop-color:#3C8EFF;stop-opacity:0"></stop>
        <stop offset="0.27" style="stop-color:#3C8EFF;stop-opacity:0.1"></stop>
        <stop offset="0.56" style="stop-color:#3C8EFF;stop-opacity:0.11"></stop>
        <stop offset="0.67" style="stop-color:#3C8EFF;stop-opacity:0.13"></stop>
        <stop offset="0.75" style="stop-color:#3C8EFF;stop-opacity:0.18"></stop>
        <stop offset="0.81" style="stop-color:#3C8EFF;stop-opacity:0.25"></stop>
        <stop offset="0.84" style="stop-color:#3C8EFF;stop-opacity:0.3"></stop>
        <stop offset="1" style="stop-color:#3C8EFF"></stop>
    </linearGradient>
    <linearGradient gradientUnits="userSpaceOnUse" id="SVGID_9_" y2="1706.79" gradientTransform="matrix(1 0 0 -1 0 1024)" x2="707" x1="707" y1="438.84">
        <stop offset="0" style="stop-color:#135DB7"></stop>
        <stop offset="1" style="stop-color:#3C8EFF"></stop>
    </linearGradient>
    <linearGradient gradientUnits="userSpaceOnUse" id="SVGID_10_" y2="1706.79" gradientTransform="matrix(1 0 0 -1 0 1024)" x2="317" x1="317" y1="438.84">
        <stop offset="0" style="stop-color:#135DB7"></stop>
        <stop offset="1" style="stop-color:#3C8EFF"></stop>
    </linearGradient>
    <linearGradient gradientUnits="userSpaceOnUse" id="SVGID_11_" y2="-72.37" gradientTransform="matrix(1 0 0 -1 0 1024)" x2="512" x1="512" y1="236.66">
        <stop offset="0" style="stop-color:#3C8EFF;stop-opacity:0"></stop>
        <stop offset="0.27" style="stop-color:#3C8EFF;stop-opacity:0.1"></stop>
        <stop offset="0.84" style="stop-color:#3C8EFF;stop-opacity:0.3"></stop>
        <stop offset="1" style="stop-color:#3C8EFF"></stop>
    </linearGradient>
    <g transform="matrix(0.33333333,0,0,0.33333333,-42.666667,-42.666667)">
        <path class="st0" d="M617,128H407c-29,0-52.5,23.5-52.5,52.5v63c0,12.4,10.1,22.5,22.5,22.5s22.5-10.1,22.5-22.5v-63
	c0-4.1,3.4-7.5,7.5-7.5h210c4.1,0,7.5,3.4,7.5,7.5v63c0,12.4,10.1,22.5,22.5,22.5s22.5-10.1,22.5-22.5v-63
	C669.5,151.5,646,128,617,128z"></path>
        <path class="st1" d="M654.5,820.7v52.8c0,12.4,10.1,22.5,22.5,22.5h165c12.4,0,22.5-10.1,22.5-22.5v-510c0-12.4-10.1-22.5-22.5-22.5
	H182c-12.4,0-22.5,10.1-22.5,22.5v510c0,12.4,10.1,22.5,22.5,22.5h165c12.4,0,22.5-10.1,22.5-22.5v-52.8H654.5z"></path>
        <path class="st2" d="M654.5,820.7v52.8c0,12.4,10.1,22.5,22.5,22.5h165c12.4,0,22.5-10.1,22.5-22.5v-510c0-12.4-10.1-22.5-22.5-22.5
	H182c-12.4,0-22.5,10.1-22.5,22.5v510c0,12.4,10.1,22.5,22.5,22.5h165c12.4,0,22.5-10.1,22.5-22.5v-52.8H654.5z"></path>
        <path class="st3" d="M512,473.7c-71.7,0-129.8,58.1-129.8,129.8S440.3,733.3,512,733.3s129.8-58.1,129.8-129.8
	S583.7,473.7,512,473.7L512,473.7z M571.7,617.7c0,4.4-3.6,7.9-7.9,7.9h-29.6v29.6c0,4.4-3.6,7.9-7.9,7.9h-28.5
	c-4.4,0-7.9-3.6-7.9-7.9v-29.6h-29.6c-4.4,0-7.9-3.6-7.9-7.9v-28.5c0-4.4,3.6-7.9,7.9-7.9h29.6v-29.6c0-4.4,3.6-7.9,7.9-7.9h28.5
	c4.4,0,7.9,3.6,7.9,7.9v29.6h29.6c4.4,0,7.9,3.6,7.9,7.9V617.7z"></path>
        <polygon points="864.5,753 864.5,386.4 350.8,386.4 " class="st4"></polygon>
        <path class="st5" d="M843.5,221h-663c-29,0-52.5,23.5-52.5,52.5v90c0,12.4,10.1,22.5,22.5,22.5h723c12.4,0,22.5-10.1,22.5-22.5v-90
	C896,244.5,872.5,221,843.5,221z"></path>
        <path class="st6" d="M128,310.4v53.1c0,12.4,10.1,22.5,22.5,22.5h723c12.4,0,22.5-10.1,22.5-22.5v-53.1H128z"></path>
        <path class="st7" d="M707,461c-29,0-52.5-23.5-52.5-52.5v-75c0-12.4,10.1-22.5,22.5-22.5h60c12.4,0,22.5,10.1,22.5,22.5v75
	C759.5,437.5,736,461,707,461C707,461,707,461,707,461z"></path>
        <path class="st8" d="M317,461c-29,0-52.5-23.5-52.5-52.5v-75c0-12.4,10.1-22.5,22.5-22.5h60c12.4,0,22.5,10.1,22.5,22.5v75
	C369.5,437.5,346,461,317,461C317,461,317,461,317,461z"></path>
        <path class="st9" d="M159.5,737.5v136c0,12.4,10,22.5,22.5,22.5c0,0,0,0,0,0h165c12.4,0,22.5-10.1,22.5-22.5v-52.8h285v52.8
	c0,12.4,10.1,22.5,22.5,22.5h165c12.4,0,22.5-10.1,22.5-22.5v-136L159.5,737.5z"></path>
    </g>
</svg>