<svg width="128" height="128" viewBox="0 0 256 256" xmlns="http://www.w3.org/2000/svg" xmlns:xlink="http://www.w3.org/1999/xlink" version="1.2" baseProfile="tiny" style="font-size: 128px; color: rgb(54, 91, 224);">
<title style="fill: rgb(54, 91, 224);">Qt SVG Document</title>
<desc style="fill: rgb(54, 91, 224);">Generated with Qt</desc>
<defs style="fill: rgb(54, 91, 224);">
</defs>
<g fill="none" stroke="black" stroke-width="1" fill-rule="evenodd" stroke-linecap="square" stroke-linejoin="bevel" style="fill: rgb(54, 91, 224);">

<g fill="none" stroke="#000000" stroke-opacity="1" stroke-width="1" stroke-linecap="square" stroke-linejoin="bevel" transform="matrix(0.0666667,0,0,0.0666667,0.933333,0.933333)" font-family="微软雅黑" font-size="12" font-weight="400" font-style="normal" style="fill: rgb(54, 91, 224);">
</g>

<g fill="none" stroke="#000000" stroke-opacity="1" stroke-width="1" stroke-linecap="square" stroke-linejoin="bevel" transform="matrix(0.0666667,0,0,0.0666667,0,0)" font-family="微软雅黑" font-size="12" font-weight="400" font-style="normal" style="fill: rgb(54, 91, 224);">
</g>

<g fill="none" stroke="#000000" stroke-opacity="1" stroke-width="1" stroke-linecap="square" stroke-linejoin="bevel" transform="matrix(0.0666667,0,0,0.0666667,0,0)" font-family="微软雅黑" font-size="12" font-weight="400" font-style="normal" style="fill: rgb(54, 91, 224);">
</g>

<g fill="none" stroke="#000000" stroke-opacity="1" stroke-width="1" stroke-linecap="square" stroke-linejoin="bevel" transform="matrix(0.0666667,0,0,0.0666667,0,0)" font-family="微软雅黑" font-size="12" font-weight="400" font-style="normal" style="fill: rgb(54, 91, 224);">
</g>

<g fill="none" stroke="#000000" stroke-opacity="1" stroke-width="1" stroke-linecap="square" stroke-linejoin="bevel" transform="matrix(0.0666667,0,0,0.0666667,0,0)" font-family="微软雅黑" font-size="12" font-weight="400" font-style="normal" style="fill: rgb(54, 91, 224);">
</g>

<g fill="none" stroke="#000000" stroke-opacity="1" stroke-width="1" stroke-linecap="square" stroke-linejoin="bevel" transform="matrix(0.0666667,0,0,0.0666667,0,0)" font-family="微软雅黑" font-size="12" font-weight="400" font-style="normal" style="fill: rgb(54, 91, 224);">
</g>

<g fill="#333333" fill-opacity="1" stroke="none" transform="matrix(13.7902,0,0,13.7902,-1.10316,14.3411)" font-family="Arial" font-size="16" font-weight="400" font-style="normal" style="fill: rgb(54, 91, 224);">
<path vector-effect="none" fill-rule="nonzero" d="M11.7594,14.2393 C11.7594,14.5192 11.5194,14.7592 11.1994,14.7592 C2.35988,14.7592 2.35988,14.7592 2.35988,14.7592 C2.03989,14.7592 1.75991,14.5192 1.75991,14.2393 C1.75991,5.47972 1.75991,5.47972 1.75991,5.47972 C1.75991,5.15973 2.03989,4.87975 2.35988,4.87975 C10.0395,4.87975 10.0395,4.87975 10.0395,4.87975 C11.6394,3.27983 11.6394,3.27983 11.6394,3.27983 C11.5194,3.27983 11.3194,3.27983 11.1994,3.27983 C2.35988,3.27983 2.35988,3.27983 2.35988,3.27983 C1.11994,3.27983 0.0799958,4.23978 0.0799958,5.47972 C0.0799958,14.2393 0.0799958,14.2393 0.0799958,14.2393 C0.0799958,15.3992 1.11994,16.3991 2.35988,16.3991 C11.1994,16.3991 11.1994,16.3991 11.1994,16.3991 C12.3994,16.3991 13.3593,15.3992 13.3593,14.2393 C13.3593,9.35951 13.3593,9.35951 13.3593,9.35951 C11.7594,10.9994 11.7594,10.9994 11.7594,10.9994 L11.7594,14.2393" style="fill: rgb(54, 91, 224);"></path>
</g>

<g fill="#333333" fill-opacity="1" stroke="none" transform="matrix(13.7902,0,0,13.7902,-1.10316,14.3411)" font-family="Arial" font-size="16" font-weight="400" font-style="normal" style="fill: rgb(54, 91, 224);">
<path vector-effect="none" fill-rule="nonzero" d="M16.2392,4.83975 L13.9193,2.47987 L6.71965,9.7195 L5.51971,13.1993 L9.23952,12.0394 L16.2392,4.83975 M8.39956,10.0395 L8.03958,9.7195 L13.9193,3.67981 L14.2393,4.15978 L8.39956,10.0395" style="fill: rgb(54, 91, 224);"></path>
</g>

<g fill="#333333" fill-opacity="1" stroke="none" transform="matrix(13.7902,0,0,13.7902,-1.10316,14.3411)" font-family="Arial" font-size="16" font-weight="400" font-style="normal" style="fill: rgb(54, 91, 224);">
<path vector-effect="none" fill-rule="nonzero" d="M14.6392,1.59992 L16.9991,4.07979 L18.639,2.43987 L16.1592,0.0799958 L14.6392,1.59992" style="fill: rgb(54, 91, 224);"></path>
</g>

<g fill="none" stroke="#000000" stroke-opacity="1" stroke-width="1" stroke-linecap="square" stroke-linejoin="bevel" transform="matrix(0.0666667,0,0,0.0666667,0,0)" font-family="微软雅黑" font-size="12" font-weight="400" font-style="normal" style="fill: rgb(54, 91, 224);">
</g>

<g fill="none" stroke="#000000" stroke-opacity="1" stroke-width="1" stroke-linecap="square" stroke-linejoin="bevel" transform="matrix(0.0666667,0,0,0.0666667,0,0)" font-family="微软雅黑" font-size="12" font-weight="400" font-style="normal" style="fill: rgb(54, 91, 224);">
</g>

<g fill="none" stroke="#000000" stroke-opacity="1" stroke-width="1" stroke-linecap="square" stroke-linejoin="bevel" transform="matrix(0.0666667,0,0,0.0666667,0,0)" font-family="微软雅黑" font-size="12" font-weight="400" font-style="normal" style="fill: rgb(54, 91, 224);">
</g>

<g fill="none" stroke="#000000" stroke-opacity="1" stroke-width="1" stroke-linecap="square" stroke-linejoin="bevel" transform="matrix(0.0666667,0,0,0.0666667,0,0)" font-family="微软雅黑" font-size="12" font-weight="400" font-style="normal" style="fill: rgb(54, 91, 224);">
</g>

<g fill="none" stroke="#000000" stroke-opacity="1" stroke-width="1" stroke-linecap="square" stroke-linejoin="bevel" transform="matrix(0.0666667,0,0,0.0666667,0,0)" font-family="微软雅黑" font-size="12" font-weight="400" font-style="normal" style="fill: rgb(54, 91, 224);">
</g>

<g fill="none" stroke="#000000" stroke-opacity="1" stroke-width="1" stroke-linecap="square" stroke-linejoin="bevel" transform="matrix(0.0666667,0,0,0.0666667,0,0)" font-family="微软雅黑" font-size="12" font-weight="400" font-style="normal" style="fill: rgb(54, 91, 224);">
</g>

<g fill="none" stroke="#000000" stroke-opacity="1" stroke-width="1" stroke-linecap="square" stroke-linejoin="bevel" transform="matrix(0.0666667,0,0,0.0666667,0.933333,0.933333)" font-family="微软雅黑" font-size="12" font-weight="400" font-style="normal" style="fill: rgb(54, 91, 224);">
</g>
</g>
</svg>