<svg height="128" width="128" xmlns="http://www.w3.org/2000/svg" xmlns:xlink="http://www.w3.org/1999/xlink" viewBox="0 0 256 256" style="font-size: 128px;">
    <defs>
        <style>.cls-1{isolation:isolate;}.cls-2{fill:url(#未命名的渐变_7);}.cls-3{fill:url(#未命名的渐变_39);}.cls-4{fill:url(#未命名的渐变_31);}.cls-5{fill:url(#未命名的渐变_8);}.cls-6{fill:url(#未命名的渐变_11);}.cls-7,.cls-8{mix-blend-mode:soft-light;}.cls-7{fill:url(#未命名的渐变_35);}.cls-8{fill:#dcf3ff;}.cls-9{fill:#88dffd;}</style>
        <linearGradient id="未命名的渐变_7" x1="-3733.84" gradientTransform="matrix(-0.71, 0.71, 0.71, 0.71, -3052.13, 1598.02)" y1="2195.72" gradientUnits="userSpaceOnUse" y2="1705.48" x2="-3171.22">
            <stop offset="0" stop-color="#10ffff"></stop>
            <stop offset="0.17" stop-color="#19e6fd"></stop>
            <stop offset="0.74" stop-color="#3593f7"></stop>
            <stop offset="1" stop-color="#4072f5"></stop>
        </linearGradient>
        <linearGradient id="未命名的渐变_39" x1="-3107.29" gradientTransform="matrix(-0.71, 0.71, 0.71, 0.71, -3052.13, 1598.02)" y1="1380.98" gradientUnits="userSpaceOnUse" y2="1797.34" x2="-3436.61">
            <stop offset="0" stop-color="#2662ea"></stop>
            <stop offset="1" stop-color="#0fffff"></stop>
        </linearGradient>
        <linearGradient id="未命名的渐变_31" x1="-3407.33" gradientTransform="matrix(-0.71, 0.71, 0.71, 0.71, -3052.13, 1598.02)" y1="1527.84" gradientUnits="userSpaceOnUse" y2="1527.84" x2="-3107.94">
            <stop offset="0" stop-color="#54d6fc"></stop>
            <stop offset="0.19" stop-color="#59cefc"></stop>
            <stop offset="1" stop-color="#6aadfa"></stop>
        </linearGradient>
        <linearGradient id="未命名的渐变_8" x1="-2860.52" gradientTransform="matrix(0, -1, -1, 0, 2034.81, -2290.61)" y1="2145.51" gradientUnits="userSpaceOnUse" y2="1303.97" x2="-3144.21">
            <stop offset="0" stop-color="#0fffff"></stop>
            <stop offset="1" stop-color="#4072f5"></stop>
        </linearGradient>
        <linearGradient id="未命名的渐变_11" x1="-3291.66" gradientTransform="matrix(-1, 0, 0, 1, -3118.83, 333.75)" y1="253.6" gradientUnits="userSpaceOnUse" y2="374.35" x2="-3370.07">
            <stop offset="0" stop-color="#2095fe"></stop>
            <stop offset="1" stop-color="#4a6cff"></stop>
        </linearGradient>
        <linearGradient id="未命名的渐变_35" x1="-3475.59" gradientTransform="matrix(-0.71, 0.71, 0.71, 0.71, -3052.13, 1598.02)" y1="1499.42" gradientUnits="userSpaceOnUse" y2="1499.42" x2="-3279.31">
            <stop offset="0" stop-color="#51dafc"></stop>
            <stop offset="1" stop-color="#5bcbfc"></stop>
        </linearGradient>
    </defs>
    <title>20201130箭头</title>
    <g transform="matrix(0.26394049,0,0,0.26394049,-9.7088867,-21.890664)">
        <g class="cls-1">
            <g id="图层_1" data-name="图层 1">
                <path class="cls-2" d="M89.12,604.51c.19.2.41.4.61.59a74.09,74.09,0,0,0,52,21.19H932.33a74.37,74.37,0,0,0,74.37-74.38c0-.82,0-1.64-.05-2.44a74.34,74.34,0,0,0-74.33-71.94H141.7A74.39,74.39,0,0,0,73.55,581.68a8.84,8.84,0,0,0,.36.84A74.3,74.3,0,0,0,89.12,604.51Z"></path>
                <path class="cls-3" d="M89.38,605.1a74.36,74.36,0,0,0,105.18,0L504,295.64a74.37,74.37,0,0,0-52.58-127,74.31,74.31,0,0,0-52.59,21.79L89.38,499.93a74.35,74.35,0,0,0-15.83,81.75,8.84,8.84,0,0,0,.36.84A73.79,73.79,0,0,0,89.38,605.1Z"></path>
                <path class="cls-4" d="M272,526.83c.14.14.29.29.44.42L484.09,315.57c-.13-.15-.28-.3-.42-.44a148.7,148.7,0,0,0-31.32-24A149.77,149.77,0,0,1,234,379.55a149.53,149.53,0,0,0,38,147.28Z"></path>
                <rect height="148.74" class="cls-5" width="586.39" y="632.87" rx="60.17" transform="translate(6.4 1417.14) rotate(-135)" x="3.51"></rect>
                <path class="cls-6" d="M89.38,499.92h0a74.38,74.38,0,0,1,105.18,0l52.59,52.59L194.56,605.1a74.36,74.36,0,0,1-105.18,0h0A74.38,74.38,0,0,1,89.38,499.92Z"></path>
                <path class="cls-7" d="M398.85,190.47,288.4,300.91a149.76,149.76,0,0,1,163.94-9.78,149.91,149.91,0,0,0-16.86-120.72A73.9,73.9,0,0,0,398.85,190.47Z"></path>
                <path class="cls-8" d="M219.34,370A143.72,143.72,0,0,0,234,379.55a148.55,148.55,0,0,1,23.8-48Z"></path>
                <path class="cls-9" d="M234,379.55a149.77,149.77,0,0,0,218.4-88.41h0A149.73,149.73,0,0,0,234,379.55Z"></path>
            </g>
        </g>
    </g>
</svg>