<svg viewBox="0 0 256 256" xmlns:xlink="http://www.w3.org/1999/xlink" height="128" id="图层_1" x="0px" xml:space="preserve" style="font-size: 128px;" width="128" y="0px" version="1.1" xmlns="http://www.w3.org/2000/svg">
    <style type="text/css">
	.st0{fill-rule:evenodd;clip-rule:evenodd;fill:#F2CD5E;}
	.st1{fill-rule:evenodd;clip-rule:evenodd;fill:#A491E8;}
	.st2{fill-rule:evenodd;clip-rule:evenodd;fill:#8D79D8;}
	.st3{fill-rule:evenodd;clip-rule:evenodd;fill:#F5F7FA;}
	.st4{fill-rule:evenodd;clip-rule:evenodd;fill:#CF5664;}
	.st5{fill-rule:evenodd;clip-rule:evenodd;fill:#BD4653;}
	.st6{fill-rule:evenodd;clip-rule:evenodd;fill:#AFD36F;}
	.st7{fill-rule:evenodd;clip-rule:evenodd;fill:#9CC05B;}
	.st8{fill-rule:evenodd;clip-rule:evenodd;fill:#81CEAD;}
	.st9{fill-rule:evenodd;clip-rule:evenodd;fill:#72BB9B;}
	.st10{fill-rule:evenodd;clip-rule:evenodd;fill:#7DC0E7;}
	.st11{fill-rule:evenodd;clip-rule:evenodd;fill:#6DADD7;}
	.st12{fill-rule:evenodd;clip-rule:evenodd;fill:#E6BA4D;}
	.st13{fill-rule:evenodd;clip-rule:evenodd;fill:#E6E8EC;}
	.st14{fill-rule:evenodd;clip-rule:evenodd;fill:#D6D5D6;}
</style>
    <g transform="matrix(0.28571429,0,0,0.28571429,-18.328571,-18.425714)">
        <circle class="st0" cy="512.49" r="448" cx="512.15"></circle>
        <g>
            <path class="st12" d="M484.17,299.6C373.3,189.29,373.3,189.29,373.3,189.29c-59.66,59.4-59.66,59.4-59.66,59.4
		c76.72,76.35,76.72,76.35,76.72,76.35c-68.19,67.86-68.19,67.86-68.19,67.86c-76.76-76.35-76.76-76.35-76.76-76.35
		c-55.41,59.4-55.41,59.4-55.41,59.4c106.57,110.3,106.57,110.3,106.57,110.3c-76.72,76.35-76.72,76.35-76.72,76.35
		c389.22,387.17,389.21,387.17,389.21,387.17c303.56-77.52,341.09-347,341.09-347c-490.24-487.89-384.98-383.8-384.98-383.8
		L484.17,299.6L484.17,299.6L484.17,299.6z"></path>
            <path class="st3" d="M588.78,560.53c12.72-4.33,25.43-4.33,33.92-4.33c21.23,8.63,21.23,8.63,21.23,8.63l0,0l0,0l0,0l0,0
		c29.69-73.38,29.69-73.38,29.69-73.38l0,0l0,0l0,0c-16.97-8.63-16.97-8.63-16.97-8.63c-25.46-12.94-33.94-43.17-25.46-73.38
		c4.25-8.63,12.74-21.57,21.23-25.9c21.2-8.63,21.2-8.63,21.2-8.63l0,0l0,0l0,0c-29.69-73.38-29.69-73.38-29.69-73.38l0,0l0,0l0,0
		l0,0l0,0c-21.23,8.63-21.23,8.63-21.23,8.63c-25.46,4.33-55.15-8.63-67.86-34.54c-4.25-12.94-4.25-25.88-4.25-34.51
		c8.49-21.6,8.49-21.6,8.49-21.6l0,0l0,0l0,0l0,0c-72.12-30.21-72.12-30.21-72.12-30.21l0,0l0,0l0,0
		c-8.49,17.27-8.49,17.27-8.49,17.27c-12.72,25.9-42.43,34.54-72.12,25.9c-12.72-4.33-21.2-12.96-25.46-21.6
		c-8.49-21.57-8.49-21.57-8.49-21.57l0,0l0,0l0,0C300.3,219.5,300.3,219.5,300.3,219.5l0,0l0,0l0,0l0,0l0,0
		c8.49,21.6,8.49,21.6,8.49,21.6c4.25,25.9-8.49,56.11-38.17,69.05c-8.49,4.33-21.2,4.33-33.94,4.33c-21.2-8.63-21.2-8.63-21.2-8.63
		l0,0l0,0l0,0l0,0c-25.46,73.38-25.46,73.38-25.46,73.38l0,0l0,0l0,0c16.97,8.63,16.97,8.63,16.97,8.63
		c25.46,12.94,33.94,43.17,25.46,73.38c-4.25,8.63-12.74,21.57-21.23,25.9c-21.2,8.63-21.2,8.63-21.2,8.63l0,0l0,0l0,0
		c29.69,73.38,29.69,73.38,29.69,73.38l0,0l0,0l0,0l0,0l0,0c21.23-8.63,21.23-8.63,21.23-8.63c25.46-4.33,55.15,8.63,67.86,34.54
		c4.25,12.94,4.25,25.88,0,38.84c-4.23,17.27-4.23,17.27-4.23,17.27l0,0l0,0l0,0l0,0c72.12,30.21,72.12,30.21,72.12,30.21l0,0l0,0
		l0,0c8.49-17.27,8.49-17.27,8.49-17.27c12.72-25.9,42.43-34.54,72.12-25.9c8.49,4.33,21.2,12.96,25.46,21.6
		c8.49,21.57,8.49,21.57,8.49,21.57l0,0l0,0l0,0c72.12-30.21,72.12-30.21,72.12-30.21l0,0l0,0l0,0l0,0l0,0
		c-8.49-21.6-8.49-21.6-8.49-21.6C550.59,603.68,563.33,573.47,588.78,560.53L588.78,560.53z M469.99,525.99
		c-50.89,21.57-106.06-4.33-127.26-51.81c-21.2-51.78,4.25-107.92,50.91-129.49c50.89-17.27,106.06,4.33,127.26,51.81
		C537.87,448.28,516.65,504.42,469.99,525.99L469.99,525.99z"></path>
            <path class="st3" d="M826.34,736.53c0-46.66,0-46.66,0-46.66c-25.45,0-25.45,0-25.45,0c-4.25-12.72-4.25-21.21-12.74-25.46
		c21.21-21.21,21.21-21.21,21.21-21.21c-33.93-33.93-33.93-33.93-33.93-33.93c-21.21,16.97-21.21,16.97-21.21,16.97
		c-8.49-4.25-16.97-8.49-25.46-8.49c0-29.7,0-29.7,0-29.7c-46.66,0-46.66,0-46.66,0c0,29.7,0,29.7,0,29.7
		c-12.72,0-21.21,4.24-25.46,8.49c-21.21-16.97-21.21-16.97-21.21-16.97C601.5,643.2,601.5,643.2,601.5,643.2
		c16.97,16.97,16.97,16.97,16.97,16.97c-4.25,8.49-8.49,16.97-8.49,29.7c-29.7,0-29.7,0-29.7,0c0,46.66,0,46.66,0,46.66
		c29.7,0,29.7,0,29.7,0c0,8.49,4.24,16.97,8.49,25.46C601.5,783.2,601.5,783.2,601.5,783.2c33.93,33.93,33.93,33.93,33.93,33.93
		c21.21-21.21,21.21-21.21,21.21-21.21c4.25,4.25,12.74,8.49,25.46,12.74c0,25.45,0,25.45,0,25.45c46.66,0,46.66,0,46.66,0
		c0-25.45,0-25.45,0-25.45c8.49-4.25,16.97-8.49,25.46-12.74c21.21,21.21,21.21,21.21,21.21,21.21
		c33.93-33.93,33.93-33.93,33.93-33.93c-21.21-21.21-21.21-21.21-21.21-21.21c4.25-8.49,8.49-16.97,12.74-25.46H826.34
		L826.34,736.53L826.34,736.53z M703.31,749.27c-16.97,0-33.93-16.97-33.93-38.18c0-16.97,16.96-33.93,33.93-33.93
		c21.21,0,38.18,16.96,38.18,33.93C741.5,732.29,724.52,749.27,703.31,749.27L703.31,749.27z"></path>
        </g>
    </g>
</svg>