<?xml version="1.0" standalone="no"?><!DOCTYPE svg PUBLIC "-//W3C//DTD SVG 1.1//EN" "http://www.w3.org/Graphics/SVG/1.1/DTD/svg11.dtd"><svg t="1717751148681" class="icon" viewBox="0 0 1024 1024" version="1.1" xmlns="http://www.w3.org/2000/svg" p-id="2744" xmlns:xlink="http://www.w3.org/1999/xlink" width="200" height="200"><path d="M961.659693 661.58596l-23.566646 20.262193-0.768478-0.870942a36.246527 36.246527 0 0 1-17.931144 5.123184 36.47707 36.47707 0 0 1-31.763741-55.535315l-0.512319-0.537934a165.939932 165.939932 0 0 0-14.344915-226.137344L607.903834 138.99557a180.131152 180.131152 0 0 0-261.026228 0L76.629647 403.889802a190.94107 190.94107 0 0 0-1.280796 268.634156l-1.536955 1.511339-11.783323-12.526185a212.458443 212.458443 0 0 1 0-300.116122L361.222522 62.916286a212.355979 212.355979 0 0 1 300.218585 0l300.218586 298.476704a212.458443 212.458443 0 0 1 0 300.19297zM479.824233 382.065037a25.61592 25.61592 0 0 1 25.61592 25.615921v102.463681h102.463681a25.61592 25.61592 0 0 1 0 51.23184h-102.463681v102.463682a25.61592 25.61592 0 1 1-51.231841 0v-102.463682h-102.463681a25.61592 25.61592 0 0 1 0-51.23184h102.463681v-102.463681a25.61592 25.61592 0 0 1 25.615921-25.615921z m-153.695522 515.802171c74.798487 74.670408 211.587502 77.949245 273.834188 13.243431l193.144039-187.380457a28.023817 28.023817 0 0 1 23.822806-8.735029 37.194316 37.194316 0 0 1 37.143084 37.219933 36.758846 36.758846 0 0 1-8.965572 23.617878l1.024637 1.127101-184.690786 183.947923a212.355979 212.355979 0 0 1-300.218585 0l-78.897035-78.179788 12.80796-12.807961z" fill="#48BCF5" p-id="2745"></path><path d="M961.659693 661.048025l-33.556855 33.300697a25.61592 25.61592 0 0 1-36.118448-36.220912h-0.256159l17.162667-15.369552a186.535132 186.535132 0 0 0-1.793115-263.843979L645.046918 116.709719a186.586363 186.586363 0 0 0-263.843979 0L117.35896 378.914279a186.330204 186.330204 0 0 0-2.049273 261.538546v0.12808a25.667152 25.667152 0 0 1-36.374607 36.220911l-16.13803-16.035566a212.612138 212.612138 0 0 1 0-300.141738L363.015636 62.147809a212.048588 212.048588 0 0 1 299.962427 0l298.68163 298.476703a212.612138 212.612138 0 0 1 0 300.423513zM151.428134 713.202039a25.769616 25.769616 0 0 1 36.374607 0 0.409855 0.409855 0 0 0 0.256159 0.409855l35.34997 35.529281a0.870941 0.870941 0 0 1 0.512319 0.281775 25.61592 25.61592 0 0 1-36.118448 36.220912h-0.256159L151.428134 749.42295a25.61592 25.61592 0 0 1 0-36.118447z m361.696795-355.753901a25.61592 25.61592 0 0 1 25.61592 25.61592v102.463681h102.463681a25.61592 25.61592 0 0 1 0 51.231841h-102.463681v102.463681a25.61592 25.61592 0 0 1-51.23184 0v-102.463681h-102.463681a25.61592 25.61592 0 0 1 0-51.231841h102.463681v-102.463681a25.61592 25.61592 0 0 1 25.61592-25.513456z m-253.085293 464.416635a25.820848 25.820848 0 0 1 36.374607 0s0.256159 0.307391 0.256159 0.409855l84.532537 84.532537a186.586363 186.586363 0 0 0 263.843979 0l175.981373-176.083836a25.667152 25.667152 0 1 1 36.374607 36.220911h-0.256159l-194.168676 194.14306a212.048588 212.048588 0 0 1-299.962427 0l-102.976-102.950384a25.61592 25.61592 0 0 1 0-36.169679z" fill="#4076FD" p-id="2746"></path></svg>