<svg xml:space="preserve" style="font-size: 128px;" height="128" id="图层_1" xmlns:xlink="http://www.w3.org/1999/xlink" x="0px" y="0px" viewBox="0 0 256 256" xmlns="http://www.w3.org/2000/svg" width="128" version="1.1">
    <style type="text/css">
	.st0{fill:url(#SVGID_1_);}
	.st1{fill:#FFFFFF;}
	.st2{fill:url(#SVGID_2_);}
</style>
    <g transform="matrix(0.31181486,0,0,0.31181486,-31.586845,-31.657004)">
        <g>
            <g id="需删除网格">
                <linearGradient y1="804.21" gradientTransform="matrix(1 0 0 -1 0 1024)" id="SVGID_1_" x2="512" gradientUnits="userSpaceOnUse" y2="432.85" x1="512">
                    <stop style="stop-color:#FD4755" offset="0"></stop>
                    <stop style="stop-color:#D2024E" offset="1"></stop>
                </linearGradient>
                <path d="M492.5,237.3L492.5,237.3c-83.4-83.4-218.6-83.4-302,0l0,0c-83.4,83.4-83.4,218.6,0,302l19.5,19.5
			l282.5,282.5c10.7,10.8,28.2,10.8,39,0c0,0,0,0,0,0L814,558.7l19.5-19.5c83.4-83.4,83.4-218.6,0-302l0,0
			c-83.4-83.4-218.6-83.4-302,0l0,0C520.7,248,503.3,248,492.5,237.3z" class="st0"></path>
                <image style="overflow:visible;opacity:0.1;enable-background:new    ;" height="261" transform="matrix(1 0 0 1 101.3 314.75)" width="821" xlink:href="11755EAB.png"></image>
                <path d="M877.7,474.9c6.1-13.8,10.8-28.2,13.8-43h-61.9L776,342.5c-3.9-6.5-10.9-10.4-18.4-10.4h-0.2
			c-7.6,0-14.6,4.1-18.4,10.7l-73.3,126l-69.6-112.2c-6.2-10.1-19.5-13.2-29.6-7c-3,1.8-5.5,4.4-7.2,7.4l-42.3,72H131.9
			c2.9,14.8,7.3,29.2,13.2,43h384.3c7.6,0,14.7-4,18.6-10.6l30.5-52l69.6,112.3c3.9,6.3,10.8,10.2,18.3,10.2h0.3
			c7.5-0.1,14.5-4.2,18.3-10.7l73-125.4l41.1,68.7c3.9,6.5,10.9,10.4,18.4,10.4H877.7z" class="st1"></path>
                <linearGradient y1="347.96" gradientTransform="matrix(1 0 0 -1 0 1024)" id="SVGID_2_" x2="512" gradientUnits="userSpaceOnUse" y2="132.58" x1="512">
                    <stop style="stop-color:#C00148;stop-opacity:0" offset="0"></stop>
                    <stop style="stop-color:#6D3326" offset="1"></stop>
                </linearGradient>
                <path d="M309.7,658.4l182.8,182.8c10.7,10.8,28.2,10.8,39,0c0,0,0,0,0,0l182.8-182.8H309.7z" class="st2"></path>
            </g>
        </g>
    </g>
</svg>