<svg xml:space="preserve" viewBox="0 0 256 256" id="需删除网格" y="0px" xmlns="http://www.w3.org/2000/svg" height="128" xmlns:xlink="http://www.w3.org/1999/xlink" version="1.1" x="0px" style="font-size: 128px;" width="128">
    <style type="text/css">
	.st0{fill:url(#SVGID_1_);}
	.st1{fill:url(#SVGID_2_);}
	.st2{fill:url(#SVGID_3_);}
	.st3{fill:url(#SVGID_4_);}
	.st4{fill:url(#SVGID_5_);}
	.st5{fill:url(#SVGID_6_);}
	.st6{fill:url(#SVGID_7_);}
	.st7{fill:url(#SVGID_8_);}
	.st8{fill:url(#SVGID_9_);}
</style>
    <linearGradient gradientUnits="userSpaceOnUse" id="SVGID_1_" y1="511.9866" gradientTransform="matrix(1 0 0 -1 0 1024)" x1="372.64" x2="579.08" y2="511.9866">
        <stop offset="0" style="stop-color:#EAF6FF"></stop>
        <stop offset="1" style="stop-color:#B3DAFE"></stop>
    </linearGradient>
    <linearGradient gradientUnits="userSpaceOnUse" id="SVGID_2_" y1="193.1401" gradientTransform="matrix(1 0 0 -1 0 1024)" x1="481.5259" x2="475.7159" y2="-131.6999">
        <stop offset="0" style="stop-color:#3C8EFF;stop-opacity:0"></stop>
        <stop offset="0.27" style="stop-color:#3C8EFF;stop-opacity:0.1"></stop>
        <stop offset="0.7" style="stop-color:#3C8EFF;stop-opacity:0.3"></stop>
        <stop offset="1" style="stop-color:#3C8EFF;stop-opacity:0.8"></stop>
    </linearGradient>
    <linearGradient gradientUnits="userSpaceOnUse" id="SVGID_3_" y1="483.6085" gradientTransform="matrix(1 0 0 -1 0 1024)" x1="375.54" x2="587.27" y2="483.6085">
        <stop offset="0" style="stop-color:#FD4755"></stop>
        <stop offset="1" style="stop-color:#D2024E"></stop>
    </linearGradient>
    <linearGradient gradientUnits="userSpaceOnUse" id="SVGID_4_" y1="233.03" gradientTransform="matrix(1 0 0 -1 0 1024)" x1="481.405" x2="481.405" y2="54.19">
        <stop offset="0" style="stop-color:#C00148;stop-opacity:0"></stop>
        <stop offset="1" style="stop-color:#6D3326"></stop>
    </linearGradient>
    <linearGradient gradientUnits="userSpaceOnUse" id="SVGID_5_" y1="891.48" gradientTransform="matrix(1 0 0 -1 0 1024)" x1="684.645" x2="684.645" y2="805.64">
        <stop offset="0" style="stop-color:#FD4755"></stop>
        <stop offset="1" style="stop-color:#D2024E"></stop>
    </linearGradient>
    <linearGradient gradientUnits="userSpaceOnUse" id="SVGID_6_" y1="801.15" gradientTransform="matrix(1 0 0 -1 0 1024)" x1="667.16" x2="667.16" y2="715.31">
        <stop offset="0" style="stop-color:#FD4755"></stop>
        <stop offset="1" style="stop-color:#D2024E"></stop>
    </linearGradient>
    <linearGradient gradientUnits="userSpaceOnUse" id="SVGID_7_" y1="710.82" gradientTransform="matrix(1 0 0 -1 0 1024)" x1="684.645" x2="684.645" y2="624.98">
        <stop offset="0" style="stop-color:#FD4755"></stop>
        <stop offset="1" style="stop-color:#D2024E"></stop>
    </linearGradient>
    <linearGradient gradientUnits="userSpaceOnUse" id="SVGID_8_" y1="528.71" gradientTransform="matrix(1 0 0 -1 0 1024)" x1="684.645" x2="684.645" y2="442.87">
        <stop offset="0" style="stop-color:#FD4755"></stop>
        <stop offset="1" style="stop-color:#D2024E"></stop>
    </linearGradient>
    <linearGradient gradientUnits="userSpaceOnUse" id="SVGID_9_" y1="620.49" gradientTransform="matrix(1 0 0 -1 0 1024)" x1="667.16" x2="667.16" y2="534.65">
        <stop offset="0" style="stop-color:#FD4755"></stop>
        <stop offset="1" style="stop-color:#D2024E"></stop>
    </linearGradient>
    <g transform="matrix(0.28569979,0,0,0.28569979,-18.273839,-18.284787)">
        <path d="M581.9,584.9V167.3c0-57.1-46.2-103.3-103.3-103.3l0,0c-57.1,0-103.3,46.2-103.3,103.3v420.9
	c-61.3,38-97.5,105.9-94.9,178c3.6,104.5,88.6,189.8,193.1,193.7c114.6,4.3,208.9-87.3,208.9-200.9
	C682.5,687.2,644.2,620.8,581.9,584.9z" class="st0"></path>
        <path d="M296.5,837.6c29.8,69.4,97.8,119.2,177,122.2c83.4,3.3,160.2-45.4,192.9-122.2H296.5z" class="st1"></path>
        <path d="M522.9,576.1v-357c0-22.9-18.6-41.5-41.5-41.5c0,0,0,0,0,0l0,0c-22.9,0-41.5,18.6-41.5,41.5v357
	c0.1,24.2-12.5,46.8-33.1,59.4c-45.9,27.7-72.6,78.6-69.4,132.1c4.2,71.8,62,130.3,133.7,135.2c79.5,5.6,148.4-54.3,154-133.7
	c3.8-53.7-22.6-105-68.5-133.1C535.8,623.3,523,600.6,522.9,576.1z" class="st2"></path>
        <path d="M341.5,793.9c14.9,59.3,67,104.6,129.7,108.9c69.9,5,133.2-41,150.2-108.9H341.5z" class="st3"></path>
        <path d="M651.9,133.9h65.6c14.5,0,26.2,11.7,26.2,26.2v0c0,14.5-11.7,26.2-26.2,26.2h-65.6c-14.5,0-26.2-11.7-26.2-26.2
	v0C625.6,145.7,637.4,133.9,651.9,133.9z" class="st4"></path>
        <path d="M651.9,224.3h30.6c14.5,0,26.2,11.7,26.2,26.2v0c0,14.5-11.7,26.2-26.2,26.2h-30.6c-14.5,0-26.2-11.7-26.2-26.2
	v0C625.6,236,637.4,224.3,651.9,224.3z" class="st5"></path>
        <path d="M651.9,314.6h65.6c14.5,0,26.2,11.7,26.2,26.2v0c0,14.5-11.7,26.2-26.2,26.2h-65.6c-14.5,0-26.2-11.7-26.2-26.2
	v0C625.6,326.3,637.4,314.6,651.9,314.6z" class="st6"></path>
        <path d="M651.9,496.7h65.6c14.5,0,26.2,11.7,26.2,26.2v0c0,14.5-11.7,26.2-26.2,26.2h-65.6c-14.5,0-26.2-11.7-26.2-26.2
	v0C625.6,508.4,637.4,496.7,651.9,496.7z" class="st7"></path>
        <path d="M651.9,404.9h30.6c14.5,0,26.2,11.7,26.2,26.2v0c0,14.5-11.7,26.2-26.2,26.2h-30.6c-14.5,0-26.2-11.7-26.2-26.2
	v0C625.6,416.7,637.4,404.9,651.9,404.9z" class="st8"></path>
    </g>
</svg>